<svg width="1920" height="228" viewBox="0 0 1920 228" fill="none" xmlns="http://www.w3.org/2000/svg">
<path d="M746.613 63.3317C485.357 -35.0683 319.076 22.3317 268.592 63.3317V116.832C313.554 73.4985 470.212 12.8318 737.147 116.832C1004.08 220.832 1174.94 165.498 1227 124.832V69.8318C1175.73 108.665 1007.87 161.732 746.613 63.3317Z" fill="#1984E7"/>
<path d="M746.021 107.664C484.766 9.26352 318.484 66.6635 268 107.664V161.164C312.962 117.83 469.621 57.1636 736.555 161.164C1003.49 265.164 1174.35 209.83 1226.41 169.164V114.164C1175.14 152.997 1007.28 206.064 746.021 107.664Z" fill="#E7DF19"/>
<path d="M1704.61 70.3317C1443.36 -28.0683 1277.08 29.3317 1226.59 70.3317V123.832C1271.55 80.4985 1428.21 19.8318 1695.15 123.832C1962.08 227.832 2132.94 172.498 2185 131.832V76.8318C2133.73 115.665 1965.87 168.732 1704.61 70.3317Z" fill="#1984E7"/>
<path d="M1704.02 114.664C1442.77 16.2635 1276.48 73.6635 1226 114.664V168.164C1270.96 124.83 1427.62 64.1636 1694.56 168.164C1961.49 272.164 2132.35 216.83 2184.41 176.164V121.164C2133.14 159.997 1965.28 213.064 1704.02 114.664Z" fill="#E7DF19"/>
<path d="M-209.387 54.3317C-470.643 -44.0683 -636.924 13.3317 -687.408 54.3317V107.832C-642.446 64.4985 -485.788 3.83179 -218.853 107.832C48.0813 211.832 218.938 156.498 271 115.832V60.8318C219.727 99.6651 51.8676 152.732 -209.387 54.3317Z" fill="#1984E7"/>
<path d="M-209.979 98.6635C-471.234 0.263515 -637.516 57.6635 -688 98.6635V152.164C-643.038 108.83 -486.379 48.1636 -219.445 152.164C47.4897 256.164 218.347 200.83 270.408 160.164V105.164C219.136 143.997 51.276 197.064 -209.979 98.6635Z" fill="#E7DF19"/>
</svg>
